<?xml version="1.0" encoding="utf-8"?><svg xmlns="http://www.w3.org/2000/svg" xmlns:xlink="http://www.w3.org/1999/xlink"><symbol fill="none" viewBox="0 0 20 20" id="check" xmlns="http://www.w3.org/2000/svg"><path d="M10 0C4.477 0 0 4.477 0 10s4.477 10 10 10 10-4.477 10-10C19.994 4.48 15.52.006 10 0Z" fill="#5243C2" fill-opacity=".15"/><path d="m15.773 6.833-5.705 7.741a.843.843 0 0 1-1.191.157l-4.074-3.257a.834.834 0 0 1 1.042-1.302l3.397 2.718 5.189-7.042a.833.833 0 1 1 1.342.985Z" fill="#7B72C1"/></symbol><symbol fill="none" viewBox="0 0 24 30" id="logo" xmlns="http://www.w3.org/2000/svg"><path d="M.737 0v9.35h1.611V1.611H21.71v17.097a9.681 9.681 0 1 1-19.362 0v-1.34H8.42v1.34a3.608 3.608 0 0 0 7.216 0V7.684H8.42V9.35h5.552v9.358a1.943 1.943 0 0 1-3.886 0v-3.007H.737v3.007a11.292 11.292 0 1 0 22.584 0V0H.737Z" fill="#231D4F"/><path d="M12.03 23.704a5.002 5.002 0 0 1-4.998-4.997H5.368a6.661 6.661 0 0 0 13.323 0V4.63H3.424v4.72h1.663V6.292h11.938v12.413a5 5 0 0 1-4.994 4.998Z" fill="#BB6BD9"/></symbol><symbol fill="none" viewBox="0 0 32 32" id="menu" xmlns="http://www.w3.org/2000/svg"><path d="M18 24H3v-2.5h15V24Zm7.5-6.25H3v-2.5h22.5v2.5ZM18 11.5H3V9h15v2.5Z" fill="#231D4F"/></symbol></svg>